<svg xmlns="http://www.w3.org/2000/svg" xmlns:xlink="http://www.w3.org/1999/xlink" width="500" zoomAndPan="magnify" viewBox="0 0 375 374.999991" height="500" preserveAspectRatio="xMidYMid meet" version="1.0"><defs><g/></defs><g fill="#af1a20" fill-opacity="1"><g transform="translate(94.100288, 207.374986)"><g><path d="M 21.765625 11.515625 L 29.046875 0.5625 C 25.359375 -0.0195312 21.941406 -1.207031 18.796875 -3 C 15.648438 -4.789062 12.914062 -7.046875 10.59375 -9.765625 C 8.28125 -12.484375 6.46875 -15.535156 5.15625 -18.921875 C 3.851562 -22.304688 3.203125 -25.921875 3.203125 -29.765625 C 3.203125 -34.023438 4 -38.019531 5.59375 -41.75 C 7.195312 -45.488281 9.410156 -48.769531 12.234375 -51.59375 C 15.066406 -54.425781 18.332031 -56.640625 22.03125 -58.234375 C 25.738281 -59.835938 29.726562 -60.640625 34 -60.640625 C 38.269531 -60.640625 42.269531 -59.835938 46 -58.234375 C 49.726562 -56.640625 53.003906 -54.425781 55.828125 -51.59375 C 58.660156 -48.769531 60.875 -45.488281 62.46875 -41.75 C 64.070312 -38.019531 64.875 -34.023438 64.875 -29.765625 C 64.875 -25.015625 63.875 -20.597656 61.875 -16.515625 C 59.875 -12.441406 57.15625 -8.960938 53.71875 -6.078125 C 50.28125 -3.203125 46.347656 -1.175781 41.921875 0 L 58.40625 0 L 58.40625 11.515625 Z M 34 -48.796875 C 30.632812 -48.796875 27.578125 -47.941406 24.828125 -46.234375 C 22.085938 -44.535156 19.914062 -42.242188 18.3125 -39.359375 C 16.71875 -36.484375 15.921875 -33.285156 15.921875 -29.765625 C 15.921875 -26.242188 16.71875 -23.054688 18.3125 -20.203125 C 19.914062 -17.347656 22.085938 -15.078125 24.828125 -13.390625 C 27.578125 -11.710938 30.660156 -10.875 34.078125 -10.875 C 37.441406 -10.875 40.492188 -11.710938 43.234375 -13.390625 C 45.984375 -15.078125 48.15625 -17.347656 49.75 -20.203125 C 51.351562 -23.054688 52.15625 -26.242188 52.15625 -29.765625 C 52.15625 -33.285156 51.34375 -36.484375 49.71875 -39.359375 C 48.09375 -42.242188 45.90625 -44.535156 43.15625 -46.234375 C 40.414062 -47.941406 37.363281 -48.796875 34 -48.796875 Z M 34 -48.796875 "/></g></g></g><g fill="#000000" fill-opacity="1"><g transform="translate(160.41669, 207.374986)"><g><path d="M 32.875 -18.5625 L 44.5625 -18.5625 C 44.289062 -14.988281 43.164062 -11.71875 41.1875 -8.75 C 39.21875 -5.789062 36.671875 -3.445312 33.546875 -1.71875 C 30.429688 0.0078125 27.007812 0.875 23.28125 0.875 C 20.394531 0.875 17.6875 0.328125 15.15625 -0.765625 C 12.625 -1.859375 10.394531 -3.375 8.46875 -5.3125 C 6.550781 -7.257812 5.046875 -9.5 3.953125 -12.03125 C 2.859375 -14.570312 2.3125 -17.28125 2.3125 -20.15625 C 2.3125 -24.050781 3.257812 -27.597656 5.15625 -30.796875 C 7.050781 -33.992188 9.582031 -36.539062 12.75 -38.4375 C 15.925781 -40.332031 19.4375 -41.28125 23.28125 -41.28125 C 26.582031 -41.28125 29.671875 -40.554688 32.546875 -39.109375 C 35.429688 -37.671875 37.863281 -35.753906 39.84375 -33.359375 L 30.796875 -26.3125 C 29.785156 -27.644531 28.625 -28.578125 27.3125 -29.109375 C 26.007812 -29.648438 24.664062 -29.921875 23.28125 -29.921875 C 20.664062 -29.921875 18.4375 -29 16.59375 -27.15625 C 14.757812 -25.320312 13.84375 -22.988281 13.84375 -20.15625 C 13.84375 -17.28125 14.757812 -14.9375 16.59375 -13.125 C 18.4375 -11.3125 20.664062 -10.40625 23.28125 -10.40625 C 25.789062 -10.40625 27.921875 -11.148438 29.671875 -12.640625 C 31.429688 -14.128906 32.5 -16.101562 32.875 -18.5625 Z M 32.875 -18.5625 "/></g></g></g><g fill="#000000" fill-opacity="1"><g transform="translate(205.532135, 207.374986)"><g><path d="M 3.4375 -19.359375 L 3.4375 -40.40625 L 14.796875 -40.40625 L 14.796875 -20.3125 C 14.796875 -17.382812 15.609375 -15 17.234375 -13.15625 C 18.867188 -11.320312 20.832031 -10.40625 23.125 -10.40625 C 24.832031 -10.40625 26.414062 -10.707031 27.875 -11.3125 C 29.34375 -11.925781 30.539062 -12.96875 31.46875 -14.4375 C 32.40625 -15.90625 32.875 -17.863281 32.875 -20.3125 L 32.875 -40.40625 L 44.15625 -40.40625 L 44.15625 0 L 32.875 0 L 32.875 -2.875 C 31.707031 -1.59375 30.015625 -0.644531 27.796875 -0.03125 C 25.585938 0.570312 23.519531 0.875 21.59375 0.875 C 18.070312 0.875 14.9375 -0.0390625 12.1875 -1.875 C 9.445312 -3.71875 7.300781 -6.171875 5.75 -9.234375 C 4.207031 -12.304688 3.4375 -15.679688 3.4375 -19.359375 Z M 3.4375 -19.359375 "/></g></g></g><g fill="#000000" fill-opacity="1"><g transform="translate(252.007459, 207.374986)"><g><path d="M 27.6875 -29.921875 L 18.078125 -29.921875 L 18.078125 -17.046875 C 18.078125 -14.742188 18.984375 -13.0625 20.796875 -12 C 22.609375 -10.9375 24.820312 -10.40625 27.4375 -10.40625 L 27.4375 0.875 C 23.4375 0.875 19.875 0.144531 16.75 -1.3125 C 13.632812 -2.78125 11.179688 -4.847656 9.390625 -7.515625 C 7.609375 -10.179688 6.71875 -13.25 6.71875 -16.71875 L 6.71875 -29.921875 L 0.640625 -29.921875 L 0.640625 -40.40625 L 6.71875 -40.40625 L 6.71875 -45.6875 L 18.078125 -53.921875 L 18.078125 -40.40625 L 27.6875 -40.40625 Z M 27.6875 -29.921875 "/></g></g></g></svg>