<?xml version="1.0" encoding="UTF-8" standalone="no"?>
<svg
   width="243.18874"
   zoomAndPan="magnify"
   viewBox="0 0 182.39155 72.15625"
   height="96.208336"
   preserveAspectRatio="xMidYMid"
   version="1.0"
   id="svg38"
   xmlns="http://www.w3.org/2000/svg"
   xmlns:svg="http://www.w3.org/2000/svg">
  <defs
     id="defs4">
    <g
       id="g2" />
  </defs>
  <g
     fill="#af1a20"
     fill-opacity="1"
     id="g12"
     transform="translate(-97.303413,-146.73436)">
    <g
       transform="translate(94.100288,207.37499)"
       id="g10">
      <g
         id="g8">
        <path
           d="M 21.765625,11.515625 29.046875,0.5625 c -3.6875,-0.5820312 -7.105469,-1.769531 -10.25,-3.5625 -3.148437,-1.789062 -5.882813,-4.046875 -8.203125,-6.765625 -2.3125,-2.71875 -4.125,-5.769531 -5.4375,-9.15625 -1.304688,-3.382813 -1.953125,-7 -1.953125,-10.84375 0,-4.257813 0.796875,-8.253906 2.390625,-11.984375 1.601562,-3.738281 3.816406,-7.019531 6.640625,-9.84375 2.832031,-2.832031 6.097656,-5.046875 9.796875,-6.640625 3.707031,-1.601563 7.695312,-2.40625 11.96875,-2.40625 4.269531,0 8.269531,0.804687 12,2.40625 3.726562,1.59375 7.003906,3.808594 9.828125,6.640625 2.832031,2.824219 5.046875,6.105469 6.640625,9.84375 1.601562,3.730469 2.40625,7.726562 2.40625,11.984375 0,4.75 -1,9.167969 -3,13.25 -2,4.074219 -4.71875,7.554687 -8.15625,10.4375 C 50.28125,-3.203125 46.347656,-1.175781 41.921875,0 H 58.40625 V 11.515625 Z M 34,-48.796875 c -3.367188,0 -6.421875,0.855469 -9.171875,2.5625 -2.742187,1.699219 -4.914063,3.992187 -6.515625,6.875 -1.59375,2.875 -2.390625,6.074219 -2.390625,9.59375 0,3.523437 0.796875,6.710937 2.390625,9.5625 1.601562,2.855469 3.773438,5.125 6.515625,6.8125 2.75,1.679687 5.832031,2.515625 9.25,2.515625 3.363281,0 6.414063,-0.835938 9.15625,-2.515625 2.75,-1.6875 4.921875,-3.957031 6.515625,-6.8125 1.601562,-2.851563 2.40625,-6.039063 2.40625,-9.5625 0,-3.519531 -0.8125,-6.71875 -2.4375,-9.59375 -1.625,-2.882813 -3.8125,-5.175781 -6.5625,-6.875 -2.742188,-1.707031 -5.792969,-2.5625 -9.15625,-2.5625 z m 0,0"
           id="path6" />
      </g>
    </g>
  </g>
  <g
     fill="#ffffff"
     fill-opacity="1"
     id="g20"
     transform="translate(-97.303413,-146.73436)">
    <g
       transform="translate(160.41669,207.37499)"
       id="g18">
      <g
         id="g16">
        <path
           d="m 32.875,-18.5625 h 11.6875 c -0.273438,3.574219 -1.398438,6.84375 -3.375,9.8125 -1.96875,2.960938 -4.515625,5.304688 -7.640625,7.03125 C 30.429688,0.0078125 27.007812,0.875 23.28125,0.875 20.394531,0.875 17.6875,0.328125 15.15625,-0.765625 12.625,-1.859375 10.394531,-3.375 8.46875,-5.3125 6.550781,-7.257812 5.046875,-9.5 3.953125,-12.03125 c -1.09375,-2.539062 -1.640625,-5.25 -1.640625,-8.125 0,-3.894531 0.945312,-7.441406 2.84375,-10.640625 1.894531,-3.195313 4.425781,-5.742187 7.59375,-7.640625 3.175781,-1.894531 6.6875,-2.84375 10.53125,-2.84375 3.300781,0 6.390625,0.726562 9.265625,2.171875 2.882813,1.4375 5.316406,3.355469 7.296875,5.75 l -9.046875,7.046875 c -1.011719,-1.332031 -2.171875,-2.265625 -3.484375,-2.796875 -1.304688,-0.539063 -2.648438,-0.8125 -4.03125,-0.8125 -2.617188,0 -4.84375,0.921875 -6.6875,2.765625 -1.835938,1.835938 -2.75,4.167969 -2.75,7 0,2.875 0.914062,5.21875 2.75,7.03125 1.84375,1.8125 4.070312,2.71875 6.6875,2.71875 2.507812,0 4.640625,-0.742188 6.390625,-2.234375 C 31.429688,-14.128906 32.5,-16.101562 32.875,-18.5625 Z m 0,0"
           id="path14" />
      </g>
    </g>
  </g>
  <g
     fill="#ffffff"
     fill-opacity="1"
     id="g28"
     transform="translate(-97.303413,-146.73436)">
    <g
       transform="translate(205.53213,207.37499)"
       id="g26">
      <g
         id="g24">
        <path
           d="M 3.4375,-19.359375 V -40.40625 h 11.359375 v 20.09375 c 0,2.929688 0.8125,5.3125 2.4375,7.15625 1.632813,1.835938 3.597656,2.75 5.890625,2.75 1.707031,0 3.289062,-0.300781 4.75,-0.90625 1.46875,-0.613281 2.664062,-1.65625 3.59375,-3.125 0.9375,-1.46875 1.40625,-3.425781 1.40625,-5.875 V -40.40625 H 44.15625 V 0 H 32.875 v -2.875 c -1.167969,1.28125 -2.859375,2.230469 -5.078125,2.84375 C 25.585938,0.570312 23.519531,0.875 21.59375,0.875 18.070312,0.875 14.9375,-0.0390625 12.1875,-1.875 9.445312,-3.71875 7.300781,-6.171875 5.75,-9.234375 c -1.542969,-3.070313 -2.3125,-6.445313 -2.3125,-10.125 z m 0,0"
           id="path22" />
      </g>
    </g>
  </g>
  <g
     fill="#ffffff"
     fill-opacity="1"
     id="g36"
     transform="translate(-97.303413,-146.73436)">
    <g
       transform="translate(252.00746,207.37499)"
       id="g34">
      <g
         id="g32">
        <path
           d="m 27.6875,-29.921875 h -9.609375 v 12.875 c 0,2.304687 0.90625,3.984375 2.71875,5.046875 1.8125,1.0625 4.023437,1.59375 6.640625,1.59375 V 0.875 c -4,0 -7.5625,-0.730469 -10.6875,-2.1875 C 13.632812,-2.78125 11.179688,-4.847656 9.390625,-7.515625 7.609375,-10.179688 6.71875,-13.25 6.71875,-16.71875 V -29.921875 H 0.640625 V -40.40625 H 6.71875 v -5.28125 l 11.359375,-8.234375 V -40.40625 H 27.6875 Z m 0,0"
           id="path30" />
      </g>
    </g>
  </g>
</svg>
