<?xml version="1.0" encoding="UTF-8" standalone="no"?>
<svg
   width="82.229164"
   zoomAndPan="magnify"
   viewBox="0 0 61.671873 72.15625"
   height="96.208336"
   preserveAspectRatio="xMidYMid"
   version="1.0"
   id="svg38"
   sodipodi:docname="icon.svg"
   inkscape:version="1.2.2 (b0a8486541, 2022-12-01)"
   xmlns:inkscape="http://www.inkscape.org/namespaces/inkscape"
   xmlns:sodipodi="http://sodipodi.sourceforge.net/DTD/sodipodi-0.dtd"
   xmlns="http://www.w3.org/2000/svg"
   xmlns:svg="http://www.w3.org/2000/svg">
  <sodipodi:namedview
     id="namedview40"
     pagecolor="#ffffff"
     bordercolor="#666666"
     borderopacity="1.0"
     inkscape:showpageshadow="2"
     inkscape:pageopacity="0.0"
     inkscape:pagecheckerboard="0"
     inkscape:deskcolor="#d1d1d1"
     showgrid="false"
     inkscape:zoom="2.034"
     inkscape:cx="-73.00885"
     inkscape:cy="16.47001"
     inkscape:window-width="1920"
     inkscape:window-height="1158"
     inkscape:window-x="0"
     inkscape:window-y="0"
     inkscape:window-maximized="1"
     inkscape:current-layer="svg38" />
  <defs
     id="defs4">
    <g
       id="g2" />
  </defs>
  <g
     fill="#af1a20"
     fill-opacity="1"
     id="g12"
     transform="translate(-97.303413,-146.73436)">
    <g
       transform="translate(94.100288,207.37499)"
       id="g10">
      <g
         id="g8">
        <path
           d="M 21.765625,11.515625 29.046875,0.5625 c -3.6875,-0.5820312 -7.105469,-1.769531 -10.25,-3.5625 -3.148437,-1.789062 -5.882813,-4.046875 -8.203125,-6.765625 -2.3125,-2.71875 -4.125,-5.769531 -5.4375,-9.15625 -1.304688,-3.382813 -1.953125,-7 -1.953125,-10.84375 0,-4.257813 0.796875,-8.253906 2.390625,-11.984375 1.601562,-3.738281 3.816406,-7.019531 6.640625,-9.84375 2.832031,-2.832031 6.097656,-5.046875 9.796875,-6.640625 3.707031,-1.601563 7.695312,-2.40625 11.96875,-2.40625 4.269531,0 8.269531,0.804687 12,2.40625 3.726562,1.59375 7.003906,3.808594 9.828125,6.640625 2.832031,2.824219 5.046875,6.105469 6.640625,9.84375 1.601562,3.730469 2.40625,7.726562 2.40625,11.984375 0,4.75 -1,9.167969 -3,13.25 -2,4.074219 -4.71875,7.554687 -8.15625,10.4375 C 50.28125,-3.203125 46.347656,-1.175781 41.921875,0 H 58.40625 V 11.515625 Z M 34,-48.796875 c -3.367188,0 -6.421875,0.855469 -9.171875,2.5625 -2.742187,1.699219 -4.914063,3.992187 -6.515625,6.875 -1.59375,2.875 -2.390625,6.074219 -2.390625,9.59375 0,3.523437 0.796875,6.710937 2.390625,9.5625 1.601562,2.855469 3.773438,5.125 6.515625,6.8125 2.75,1.679687 5.832031,2.515625 9.25,2.515625 3.363281,0 6.414063,-0.835938 9.15625,-2.515625 2.75,-1.6875 4.921875,-3.957031 6.515625,-6.8125 1.601562,-2.851563 2.40625,-6.039063 2.40625,-9.5625 0,-3.519531 -0.8125,-6.71875 -2.4375,-9.59375 -1.625,-2.882813 -3.8125,-5.175781 -6.5625,-6.875 -2.742188,-1.707031 -5.792969,-2.5625 -9.15625,-2.5625 z m 0,0"
           id="path6" />
      </g>
    </g>
  </g>
</svg>
